<svg width="512" height="512" viewBox="0 0 512 512" fill="none" xmlns="http://www.w3.org/2000/svg">
<g clip-path="url(#clip0_409_26)">
<path d="M11.3499 185.181C-36.4138 75.2057 75.2058 -36.4138 185.181 11.3499L203.364 19.247C236.94 33.8296 275.06 33.8295 308.636 19.247L326.819 11.3499C436.794 -36.4138 548.414 75.2058 500.65 185.181L492.753 203.364C478.17 236.94 478.17 275.06 492.753 308.636L500.65 326.819C548.414 436.794 436.794 548.414 326.819 500.65L308.636 492.753C275.06 478.17 236.94 478.17 203.364 492.753L185.181 500.65C75.2057 548.414 -36.4138 436.794 11.3499 326.819L19.2471 308.636C33.8296 275.06 33.8295 236.94 19.247 203.364L11.3499 185.181Z" fill="#FFB5A0"/>
<path d="M187.936 124.593C188.844 124.589 188.844 124.589 189.771 124.585C191.781 124.578 193.792 124.579 195.803 124.58C197.252 124.576 198.701 124.572 200.15 124.568C203.668 124.559 207.186 124.555 210.704 124.554C213.568 124.554 216.432 124.551 219.296 124.548C227.437 124.537 235.578 124.532 243.72 124.533C244.377 124.533 244.377 124.533 245.047 124.533C245.705 124.533 245.705 124.533 246.376 124.533C253.472 124.533 260.568 124.522 267.665 124.506C274.973 124.489 282.281 124.481 289.589 124.482C293.683 124.482 297.777 124.479 301.872 124.466C305.727 124.454 309.582 124.455 313.437 124.463C314.844 124.465 316.251 124.462 317.658 124.455C327.868 124.406 337.846 124.976 347.296 129.254C347.753 129.455 348.21 129.656 348.681 129.862C364.583 137.067 377.025 150.145 383.32 166.412C385.958 173.49 387.431 180.386 387.407 187.94C387.409 188.546 387.412 189.152 387.415 189.776C387.422 191.788 387.421 193.8 387.42 195.812C387.424 197.262 387.428 198.712 387.432 200.163C387.441 203.683 387.445 207.203 387.446 210.723C387.446 213.588 387.449 216.453 387.452 219.319C387.463 227.463 387.468 235.607 387.467 243.751C387.467 244.19 387.467 244.628 387.467 245.079C387.467 245.518 387.467 245.956 387.467 246.408C387.467 253.509 387.478 260.61 387.494 267.71C387.511 275.022 387.519 282.333 387.518 289.644C387.518 293.741 387.521 297.837 387.534 301.934C387.545 305.79 387.545 309.647 387.537 313.504C387.535 314.912 387.538 316.32 387.545 317.728C387.628 335.218 383.683 350.946 372.016 364.398C371.627 364.872 371.238 365.346 370.837 365.834C363.775 374.148 354.37 380.257 344.147 383.954C343.782 384.087 343.417 384.22 343.041 384.357C334.052 387.382 325.311 387.506 315.922 387.487C314.471 387.49 313.021 387.494 311.57 387.499C308.058 387.508 304.546 387.51 301.034 387.506C298.176 387.504 295.318 387.505 292.459 387.508C292.05 387.508 291.641 387.509 291.22 387.509C290.389 387.51 289.559 387.511 288.728 387.512C280.958 387.52 273.188 387.517 265.419 387.51C258.333 387.504 251.248 387.512 244.163 387.526C236.862 387.54 229.561 387.546 222.26 387.542C218.172 387.54 214.083 387.541 209.995 387.552C206.148 387.561 202.301 387.558 198.454 387.547C197.049 387.545 195.645 387.547 194.241 387.553C176.764 387.624 161.043 383.674 147.602 372.016C147.128 371.627 146.654 371.238 146.166 370.837C137.852 363.775 131.743 354.37 128.046 344.147C127.913 343.782 127.78 343.417 127.643 343.041C124.619 334.055 124.494 325.317 124.513 315.931C124.51 314.481 124.506 313.032 124.501 311.582C124.492 308.073 124.49 304.563 124.494 301.053C124.496 298.196 124.495 295.339 124.492 292.482C124.491 292.073 124.491 291.665 124.491 291.244C124.49 290.413 124.489 289.583 124.488 288.752C124.48 280.985 124.483 273.218 124.49 265.451C124.496 258.37 124.488 251.289 124.474 244.208C124.46 236.911 124.454 229.613 124.458 222.316C124.46 218.229 124.459 214.143 124.448 210.057C124.439 206.211 124.442 202.366 124.453 198.52C124.455 197.117 124.453 195.714 124.447 194.31C124.406 184.114 124.981 174.141 129.254 164.704C129.555 164.018 129.555 164.018 129.862 163.319C137.067 147.417 150.145 134.975 166.412 128.68C173.488 126.043 180.383 124.568 187.936 124.593ZM155.04 159.554C144.254 172.186 143.315 187.517 143.348 203.396C143.347 204.674 143.345 205.953 143.342 207.231C143.337 210.674 143.339 214.117 143.343 217.56C143.346 221.181 143.343 224.801 143.341 228.422C143.339 234.5 143.342 240.578 143.347 246.655C143.354 253.66 143.351 260.664 143.345 267.669C143.34 273.707 143.339 279.745 143.342 285.782C143.344 289.378 143.344 292.974 143.34 296.569C143.337 299.951 143.339 303.333 143.346 306.715C143.348 307.949 143.347 309.183 143.345 310.416C143.313 327.036 145.282 342.313 157.274 354.746C169.957 367.267 185.571 368.59 202.528 368.585C203.818 368.587 205.109 368.589 206.399 368.591C209.891 368.596 213.382 368.598 216.874 368.598C219.059 368.598 221.244 368.6 223.43 368.601C230.672 368.606 237.915 368.609 245.157 368.609C245.546 368.609 245.936 368.609 246.337 368.609C246.922 368.609 246.922 368.609 247.519 368.609C253.832 368.608 260.145 368.614 266.458 368.622C272.961 368.631 279.463 368.634 285.965 368.634C289.608 368.634 293.25 368.636 296.893 368.642C300.321 368.648 303.75 368.648 307.179 368.643C308.43 368.643 309.682 368.644 310.934 368.648C327.384 368.691 342.449 366.586 354.746 354.726C367.408 341.901 368.59 326.072 368.585 308.937C368.587 307.659 368.589 306.381 368.591 305.103C368.596 301.647 368.598 298.192 368.598 294.737C368.598 292.574 368.6 290.41 368.601 288.247C368.607 280.686 368.609 273.126 368.609 265.566C368.608 258.54 368.614 251.514 368.624 244.487C368.631 238.437 368.634 232.387 368.634 226.337C368.634 222.731 368.636 219.126 368.642 215.52C368.647 212.126 368.647 208.732 368.643 205.338C368.643 204.1 368.644 202.862 368.648 201.623C368.694 184.221 366.311 169.29 353.852 156.391C341.44 144.291 325.813 143.41 309.472 143.415C308.182 143.413 306.891 143.411 305.601 143.409C302.109 143.404 298.618 143.402 295.126 143.402C292.941 143.402 290.755 143.4 288.57 143.399C281.328 143.394 274.085 143.391 266.843 143.391C266.454 143.391 266.064 143.391 265.663 143.391C265.078 143.391 265.078 143.391 264.481 143.391C258.168 143.392 251.855 143.386 245.542 143.378C239.039 143.369 232.537 143.366 226.035 143.366C222.392 143.366 218.75 143.364 215.107 143.358C211.679 143.352 208.25 143.352 204.821 143.357C203.57 143.357 202.318 143.356 201.066 143.352C183.108 143.305 167.88 146.192 155.04 159.554Z" fill="#561F0F"/>
<path d="M292.328 193.305C300.135 199.18 305.777 207.201 307.398 216.969C308.465 226.885 306.449 236.13 300.232 244.028C297.631 247.254 294.792 250.177 291.852 253.094C291.291 253.654 290.73 254.215 290.17 254.776C288.666 256.281 287.158 257.782 285.649 259.282C284.067 260.857 282.488 262.436 280.908 264.014C277.925 266.994 274.938 269.971 271.95 272.947C268.546 276.338 265.144 279.733 261.743 283.128C254.754 290.105 247.761 297.077 240.766 304.047C241.476 304.049 241.476 304.049 242.202 304.051C253.733 304.086 265.264 304.13 276.796 304.185C282.372 304.211 287.948 304.234 293.525 304.25C298.385 304.263 303.246 304.283 308.106 304.31C310.68 304.324 313.253 304.335 315.827 304.339C318.25 304.342 320.673 304.354 323.096 304.372C323.984 304.377 324.873 304.379 325.761 304.378C326.977 304.377 328.191 304.387 329.406 304.399C330.086 304.402 330.765 304.405 331.465 304.407C333.978 304.709 335.964 305.555 337.823 307.29C340.618 310.946 340.794 313.538 340.375 318.109C339.027 321.128 336.975 322.767 333.93 323.969C331.868 324.296 329.839 324.286 327.755 324.266C326.833 324.272 326.833 324.272 325.892 324.277C323.836 324.287 321.781 324.279 319.724 324.272C318.249 324.275 316.773 324.279 315.297 324.285C311.707 324.294 308.118 324.293 304.528 324.286C301.609 324.281 298.69 324.28 295.771 324.282C295.147 324.283 295.147 324.283 294.511 324.284C293.666 324.284 292.821 324.285 291.976 324.286C284.057 324.292 276.138 324.285 268.219 324.272C261.431 324.262 254.642 324.264 247.853 324.274C239.964 324.287 232.075 324.292 224.186 324.285C223.344 324.284 222.501 324.283 221.659 324.282C221.245 324.282 220.831 324.282 220.404 324.281C217.491 324.279 214.577 324.283 211.664 324.288C207.738 324.296 203.813 324.29 199.888 324.277C198.448 324.274 197.008 324.275 195.569 324.28C193.601 324.286 191.634 324.278 189.667 324.266C189.099 324.272 188.532 324.277 187.947 324.282C183.323 324.229 180.009 322.892 176.166 320.38C172.69 316.746 171.305 313.142 171.281 308.11C171.484 302.028 173.512 296.121 175.187 290.316C175.798 288.196 176.391 286.071 176.981 283.945C180.7 270.695 184.971 261.125 194.856 251.273C195.47 250.655 196.084 250.036 196.697 249.417C198.347 247.754 200.002 246.097 201.659 244.442C203.048 243.053 204.434 241.661 205.821 240.27C209.094 236.985 212.372 233.705 215.653 230.428C219.026 227.06 222.389 223.683 225.748 220.302C228.646 217.386 231.55 214.476 234.458 211.57C236.189 209.84 237.918 208.108 239.641 206.371C241.261 204.737 242.889 203.111 244.522 201.49C245.116 200.897 245.708 200.303 246.297 199.705C250.871 195.07 255.595 191.742 261.786 189.606C262.292 189.427 262.798 189.248 263.32 189.064C272.943 186.141 283.926 187.957 292.328 193.305ZM257.423 216.093C256.829 216.681 256.235 217.269 255.639 217.856C254.037 219.44 252.444 221.033 250.853 222.629C249.518 223.967 248.178 225.3 246.838 226.633C243.674 229.783 240.517 232.94 237.365 236.103C234.129 239.349 230.879 242.583 227.624 245.811C224.815 248.596 222.015 251.388 219.221 254.188C217.559 255.853 215.893 257.516 214.22 259.171C212.644 260.731 211.078 262.3 209.52 263.876C208.684 264.717 207.838 265.549 206.992 266.379C201.866 271.604 198.738 277.682 196.896 284.77C196.709 285.447 196.709 285.447 196.519 286.137C196.264 287.07 196.013 288.005 195.765 288.94C195.386 290.372 194.995 291.8 194.601 293.228C194.352 294.144 194.104 295.06 193.856 295.977C193.741 296.4 193.626 296.824 193.507 297.26C192.99 299.224 192.719 300.826 192.719 302.875C198.605 301.571 204.443 300.103 210.26 298.517C210.87 298.355 211.48 298.194 212.108 298.027C225.186 294.407 233.388 283.993 242.723 274.691C243.32 274.096 243.917 273.501 244.514 272.907C247.315 270.117 250.115 267.325 252.913 264.532C256.124 261.327 259.339 258.127 262.559 254.93C265.064 252.443 267.564 249.952 270.061 247.457C271.546 245.973 273.033 244.492 274.524 243.015C276.185 241.37 277.837 239.716 279.488 238.061C279.976 237.581 280.464 237.1 280.966 236.605C284.963 232.573 287.98 228.577 288.373 222.785C288.265 217.903 286.489 214.364 283.127 210.855C279.68 207.924 275.644 206.868 271.158 207.127C265.359 207.957 261.374 212.113 257.423 216.093Z" fill="#561F0F"/>
</g>
<defs>
<clipPath id="clip0_409_26">
<rect width="512" height="512" fill="white"/>
</clipPath>
</defs>
</svg>
